<svg height="512" viewBox="0 0 58 60" width="512" xmlns="http://www.w3.org/2000/svg"><g id="006---Bee" fill="none" transform="translate(0 -1)"><g fill="#547580"><path id="Shape" d="m17.75 18.33c-.2856593.0021747-.558611-.117924-.75-.33l-4.6-6.14c-.37-.48-.34-.56-2.29-5.44-.20434534-.51362481.0463752-1.09565462.56-1.29999997.5136248-.20434536 1.0956546.04637517 1.3.55999997 2.07 5.19 1.92 4.83 2 5l4.58 6.1c.1991451.3019219.2197384.6878472.0538544 1.0092474-.165884.3214003-.4923887.5281782-.8538544.5407526z"/><path id="Shape" d="m10.29 6.71-3-3c-.39212216-.39212217-.39212216-1.02787782.00000001-1.41999999s1.02787782-.39212217 1.41999999-.00000001l1.75 1.71.54-2.24c.1325483-.55228474.6877153-.89254832 1.24-.75999999.5522847.13254834.8925483.68771524.76 1.23999999l-1 4c-.0785572.36429057-.3531655.6546771-.7125041.75344267-.3593385.09876558-.7437863-.01047688-.9974959-.28344267z"/><path id="Shape" d="m40.25 18.33c-.3824923-.001757-.7304753-.221544-.8964082-.5661738s-.1207435-.7537221.1164082-1.0538262c5.07-6.55 4.63-6.15 4.7-6.32l1.9-4.76c.2043454-.51362482.7863752-.76434536 1.3-.56s.7643454.78637518.56 1.3l-1.93 4.76c-.21.52 0 .41-5 6.82-.1820198.2307155-.4563088.3696886-.75.38z"/><path id="Shape" d="m46 6.24-1-4c-.1325483-.55228475.2077153-1.10745166.76-1.24s1.1074517.20771525 1.24.76l.54 2.24 1.75-1.75c.2536586-.25365859.623374-.35272356.9698781-.25987808.346504.09284548.6171545.36349596.71.71000002.0928455.34650407-.0062195.7162195-.2598781.96987806l-3 3c-.2480649.27284056-.6261533.38702108-.9837721.29709354s-.6367264-.36936787-.7262279-.72709354z"/><path id="Shape" d="m9 48c-.28737984.0020776-.56176242-.1195851-.75316693-.3339581-.1914045-.214373-.28132706-.5007322-.24683307-.7860419l.9-7.26c.09456606-.7242868.45012998-1.3891913 1-1.87l5.77-5.25c.4142136-.3672693 1.0477306-.3292135 1.415.085.3672693.4142136.3292135 1.0477306-.085 1.415l-5.77 5.25c-.4.36-.26 0-1.24 7.87-.06057605.501169-.48518533.8785995-.99.88z"/><path id="Shape" d="m10 52c-.47069718.0137136-.88718447-.3028167-1-.76l-.54-2.24-1.75 1.71c-.39212218.3921221-1.02787781.3921221-1.41999996 0-.39212216-.3921222-.39212218-1.0278778-.00000004-1.42l3-3c.25539815-.2562188.629266-.3545185.97765736-.2570519.34839136.0974667.61697557.3755.70234264.7270519l1 4c.0737619.2983583.0062304.6140635-.1831338.8561373s-.4795252.3836252-.7868662.3838627z"/><path id="Shape" d="m49 48c-.5086257.0036739-.9389766-.3750349-1-.88l-.91-7.25c-.06-.51.15-.26-6.1-5.87-.4142135-.3672694-.4522693-1.0007864-.085-1.415.3672694-.4142135 1.0007864-.4522693 1.415-.085l5.77 5.25c.54987.4808087.9054339 1.1457132 1 1.87l.9 7.26c.0342778.2835751-.0543469.5682732-.2435215.782289-.1891747.2140158-.4608403.3369188-.7464785.337711z"/><path id="Shape" d="m48 52c-.3125741.0091729-.611443-.1284007-.8077466-.3718172-.1963037-.2434165-.267438-.564647-.1922534-.8681828l1-4c.0853671-.3515519.3539513-.6295852.7023426-.7270519.3483914-.0974666.7222592.0008331.9776574.2570519l3 3c.2536586.2536586.3527235.623374.259878.969878-.0928454.3465041-.3634959.6171546-.71.71-.346504.0928455-.7162194-.0062194-.969878-.259878l-1.72-1.71-.54 2.24c-.1128155.4571833-.5293028.7737136-1 .76z"/></g><path id="Shape" d="m39.06 16.45h-20.12c-1.92-1.67-.55-4.83 1-6.82l6.67-4.33c1.5682278-.40000711 3.2117722-.40000711 4.78 0l6.61 4.33c1.61 2 3 5.16 1.06 6.82z" fill="#35495e"/><path id="Shape" d="m29 7c-.0011423 2.40016896-1.4325563 4.5687171-3.6391099 5.5131395-2.2065536.9444223-4.7636254.4829775-6.5008901-1.1731395.3244117-.6051624.7061623-1.1777883 1.14-1.71l6.61-4.33c.6700268-.17604125 1.3576259-.2766655 2.05-.3.2271808.64223773.3421911 1.31876905.34 2z" fill="#2c3e50"/><circle id="Oval" cx="23" cy="7" fill="#f0c419" r="5"/><path id="Shape" d="m39.14 11.34c-2.0086061 1.9176319-5.0706781 2.2063348-7.4023044.6979153-2.3316263-1.5084194-3.3234683-4.41975652-2.3976956-7.0379153.6919972.0200648 1.3795903.11733408 2.05.29l6.61 4.34c.4338377.5322117.8155883 1.1048376 1.14 1.71z" fill="#2c3e50"/><circle id="Oval" cx="35" cy="7" fill="#f0c419" r="5"/><path id="Shape" d="m27 7c.004123 2.13473642-1.66881 3.8965177-3.8009047 4.002768-2.1320946.1062502-3.9718964-1.48047843-4.1800305-3.60504821-.2081341-2.12456979 1.2887561-4.03817845 3.4009352-4.34771979 1.1484755-.16830989 2.3134254.17056482 3.19242.92864968.8789946.75808485 1.3853382 1.86060956 1.38758 3.02135032z" fill="#fff"/><path id="Shape" d="m39 7c0 2.209139-1.790861 4-4 4s-4-1.790861-4-4c.0168714-1.51326017.8719718-2.89220577 2.22-3.58 1.239569-.61595713 2.7094888-.54728308 3.8862291.18156303 1.1767404.72884612 1.8930366 2.01426429 1.8937709 3.39843697z" fill="#fff"/><circle id="Oval" cx="24" cy="7" fill="#35495e" r="2"/><circle id="Oval" cx="34" cy="7" fill="#35495e" r="2"/><path id="Shape" d="m29 61c-.5522847 0-1-.4477153-1-1v-3c0-.5522847.4477153-1 1-1s1 .4477153 1 1v3c0 .5522847-.4477153 1-1 1z" fill="#547580"/><path id="Shape" d="m42.2 31c.5517822 2.067503.8208966 4.2002347.8 6.34 0 9.87-6.27 19.66-14 19.66s-14-9.79-14-19.66c-.0208966-2.1397653.2482178-4.272497.8-6.34z" fill="#f0c419"/><path id="Shape" d="m42.94 39c-.2441659 3.6316319-1.2928056 7.1635322-3.07 10.34-6.8021267 3.5896701-14.9378733 3.5896701-21.74 0-1.778745-3.1758131-2.8274907-6.7080705-3.07-10.34 6.29 6.64 21.54 6.68 27.88 0z" fill="#2c3e50"/><path id="Shape" d="m38.78 26.7c-6.1620217 3.0704763-13.4079783 3.0704763-19.57 0l-4.67 3c5.51 8.21 23.1 8.52 28.91 0z" fill="#2c3e50"/><path id="Shape" d="m38.78 26.7c-6.1620217 3.0704763-13.4079783 3.0704763-19.57 0l-1.66-9.38c6-4.36 16.57-4.47 22.9 0z" fill="#f0c419"/><path id="Shape" d="m26 19.11v1.12c-.0015031 1.5692591-.9204705 2.992681-2.35 3.64-4.58 2-7.76 7.05-14.65 7.13-6.32.07-8.77-5.53-9-11.8-.00108426-1.070356.84072771-1.9518345 1.91-2 7.70753173-.4604211 15.4416906-.1589598 23.09.9h.15c.4968637.075266.8606937.5075817.85 1.01z" fill="#84b5cb"/><path id="Shape" d="m25 18.1c.0506428 1.6161332-.8766896 3.1038111-2.35 3.77-4.57 2.02-7.75 7.05-14.65 7.13-2.78423112.150344-5.42362624-1.2501513-6.86-3.64-.70680445-1.9792028-1.0916896-4.0589331-1.14-6.16-.00108426-1.070356.84072771-1.9518345 1.91-2 7.70787907-.422345 15.4383805-.1210262 23.09.9z" fill="#9fc9d3"/><path id="Shape" d="m58 19.2c-.0572285 2.1166897-.4556845 4.210272-1.18 6.2-1.15 3-3.42 5.63-7.82 5.58-6.89-.08-10.07-5.11-14.65-7.13-1.4229601-.6443116-2.3406814-2.057993-2.35-3.62v-1.12c0-.5522847.4477153-1 1-1 7.6536634-1.0350056 15.387547-1.3497177 23.1-.94 1.0770409.0537768 1.9175174.9517597 1.9 2.03z" fill="#84b5cb"/><path id="Shape" d="m58 19.2c-.0572285 2.1166897-.4556845 4.210272-1.18 6.2-1.4365898 2.3647119-4.0570738 3.7479586-6.82 3.6-6.89-.08-10.07-5.11-14.65-7.13-1.4733104-.6661889-2.4006428-2.1538668-2.35-3.77 7.6536634-1.0350056 15.387547-1.3497177 23.1-.94 1.0809913.0538725 1.9229882.9579113 1.9 2.04z" fill="#9fc9d3"/><path id="Shape" d="m24 5c.0003375.82037489-.5003473 1.55776118-1.2629888 1.86007389-.7626415.3023127-1.63256.1082364-2.1943893-.48956193-.5618294-.59779834-.7016187-1.47807255-.3526219-2.22051196.6075963-.59426394 1.3886823-.97955299 2.23-1.1.9197157.19754168 1.5774581 1.0093124 1.58 1.95z" fill="#fff"/><path id="Shape" d="m34 5c.0028489.71595059-.3772235 1.37881251-.996548 1.73802071-.6193245.35920821-1.383419.35996309-2.003452.00197929.0930745-1.42119275.9348086-2.68569832 2.21-3.32.4942558.37553377.7861264.95927513.79 1.58z" fill="#fff"/></g></svg>